<svg width="24" height="24" viewBox="0 0 24 24" fill="none" xmlns="http://www.w3.org/2000/svg">
<path d="M9 11V17M9 17L11 15M9 17L7 15" stroke="url(#paint0_linear_1193_750)" stroke-width="1.5" stroke-linecap="round" stroke-linejoin="round"/>
<path d="M22 10V15C22 20 20 22 15 22H9C4 22 2 20 2 15V9C2 4 4 2 9 2H14" stroke="url(#paint1_linear_1193_750)" stroke-width="1.5" stroke-linecap="round" stroke-linejoin="round"/>
<path d="M22 10H18C15 10 14 9 14 6V2L22 10Z" stroke="url(#paint2_linear_1193_750)" stroke-width="1.5" stroke-linecap="round" stroke-linejoin="round"/>
<defs>
<linearGradient id="paint0_linear_1193_750" x1="7" y1="11" x2="11.8874" y2="11.8406" gradientUnits="userSpaceOnUse">
<stop stop-color="#16222A"/>
<stop offset="1" stop-color="#355869"/>
</linearGradient>
<linearGradient id="paint1_linear_1193_750" x1="2" y1="2" x2="25.5898" y2="8.08615" gradientUnits="userSpaceOnUse">
<stop stop-color="#16222A"/>
<stop offset="1" stop-color="#355869"/>
</linearGradient>
<linearGradient id="paint2_linear_1193_750" x1="14" y1="2" x2="23.4359" y2="4.43446" gradientUnits="userSpaceOnUse">
<stop stop-color="#16222A"/>
<stop offset="1" stop-color="#355869"/>
</linearGradient>
</defs>
</svg>
