<svg width="2084" height="2007" viewBox="0 0 2084 2007" fill="none" xmlns="http://www.w3.org/2000/svg">
<g opacity="0.32" filter="url(#filter0_f_2054_65)">
<path d="M509.664 908.845C485.73 1025 506.577 1145.28 568.548 1248.59C630.52 1351.9 729.661 1431.65 848.59 1473.85C967.52 1516.05 1098.65 1518.02 1218.98 1479.4C1339.31 1440.78 1441.17 1364.05 1506.7 1262.65C1572.22 1161.25 1597.23 1041.66 1577.35 924.844C1557.46 808.029 1493.94 701.445 1397.93 623.78C1301.91 546.115 1179.53 502.326 1052.25 500.09C924.959 497.854 800.886 537.314 701.781 611.552L876.284 812.588C924.557 776.428 984.991 757.207 1046.99 758.296C1108.99 759.385 1168.6 780.714 1215.37 818.544C1262.13 856.373 1293.07 908.289 1302.76 965.188C1312.45 1022.09 1300.26 1080.34 1268.35 1129.73C1236.43 1179.12 1186.82 1216.49 1128.2 1235.3C1069.59 1254.12 1005.72 1253.16 947.793 1232.6C889.864 1212.04 841.574 1173.2 811.388 1122.88C781.203 1072.56 771.049 1013.97 782.707 957.395L509.664 908.845Z" fill="#487186"/>
</g>
<defs>
<filter id="filter0_f_2054_65" x="-0.000976562" y="0" width="2084" height="2007" filterUnits="userSpaceOnUse" color-interpolation-filters="sRGB">
<feFlood flood-opacity="0" result="BackgroundImageFix"/>
<feBlend mode="normal" in="SourceGraphic" in2="BackgroundImageFix" result="shape"/>
<feGaussianBlur stdDeviation="250" result="effect1_foregroundBlur_2054_65"/>
</filter>
</defs>
</svg>
